<svg width="1024" height="1024" viewBox="0 0 1024 1024" fill="none" xmlns="http://www.w3.org/2000/svg">
<rect width="1024" height="1024" fill="white"/>
<g clip-path="url(#clip0_1_196)">
<mask id="mask0_1_196" style="mask-type:luminance" maskUnits="userSpaceOnUse" x="102" y="101" width="823" height="823">
<path d="M925 101H102V924H925V101Z" fill="white"/>
</mask>
<g mask="url(#mask0_1_196)">
<mask id="mask1_1_196" style="mask-type:luminance" maskUnits="userSpaceOnUse" x="102" y="101" width="823" height="823">
<path d="M925 101H102V924H925V101Z" fill="white"/>
</mask>
<g mask="url(#mask1_1_196)">
<path d="M200.76 784.09V243.996C200.76 201.384 235.304 166.84 277.916 166.84H794.863C807.648 166.84 818.01 177.203 818.01 189.987V695.91" stroke="black" stroke-width="20" stroke-linecap="round"/>
<path d="M277.916 706.935H818.01" stroke="black" stroke-width="20" stroke-linecap="round"/>
<path d="M277.916 861.245H818.01" stroke="black" stroke-width="20" stroke-linecap="round"/>
<path d="M277.916 861.245C235.304 861.245 200.76 826.702 200.76 784.09C200.76 741.478 235.304 706.935 277.916 706.935" stroke="black" stroke-width="20" stroke-linecap="round" stroke-linejoin="round"/>
<path fill-rule="evenodd" clip-rule="evenodd" d="M356.074 715H291V810.698H298.49L323.537 778.8L348.584 810.698H356.074V715Z" fill="black"/>
<path d="M411.723 644.146L411.962 528.926" stroke="black" stroke-width="10"/>
<path d="M466.589 583.829H351.369" stroke="black" stroke-width="10"/>
<path d="M724.249 218.235L720.249 305.751L640.908 245.241L724.249 218.235Z" fill="black"/>
<path d="M522.071 354C536.839 339.229 555.661 329.17 576.148 325.095C596.635 321.019 617.872 323.111 637.172 331.106C656.469 339.099 672.967 352.637 684.569 370.006C696.176 387.375 702.369 407.795 702.369 428.684C702.369 449.574 696.176 469.994 684.569 487.362C672.967 504.729 656.469 518.269 637.172 526.261C617.872 534.258 596.635 536.348 576.148 532.275C555.661 528.198 536.839 518.139 522.071 503.367L548.208 477.228C557.808 486.83 570.042 493.368 583.359 496.017C596.677 498.666 610.48 497.307 623.024 492.109C635.568 486.914 646.29 478.115 653.835 466.825C661.38 455.535 665.403 442.262 665.403 428.684C665.403 415.106 661.38 401.833 653.835 390.543C646.29 379.253 635.568 370.454 623.024 365.257C610.48 360.063 596.677 358.703 583.359 361.351C570.042 364 557.808 370.539 548.208 380.14L522.071 354Z" fill="black"/>
<path d="M490.651 503.367C475.88 518.139 457.06 528.198 436.572 532.275C416.085 536.348 394.848 534.258 375.549 526.261C356.249 518.269 339.755 504.729 328.149 487.362C316.543 469.994 310.349 449.573 310.349 428.684C310.349 407.795 316.543 387.375 328.149 370.006C339.755 352.637 356.249 339.099 375.549 331.106C394.848 323.111 416.085 321.021 436.572 325.095C457.06 329.17 475.88 339.231 490.651 354L464.512 380.14C454.91 370.539 442.678 364.001 429.361 361.351C416.043 358.703 402.24 360.062 389.696 365.259C377.152 370.454 366.43 379.253 358.886 390.543C351.343 401.833 347.316 415.106 347.316 428.684C347.316 442.262 351.343 455.535 358.886 466.825C366.43 478.115 377.152 486.914 389.696 492.113C402.24 497.307 416.043 498.666 429.361 496.017C442.678 493.368 454.91 486.83 464.512 477.228L490.651 503.367Z" fill="black"/>
<path d="M466.589 404.137H543.4" stroke="black" stroke-width="10" stroke-linecap="round"/>
<path d="M466.589 442.545H543.4" stroke="black" stroke-width="10" stroke-linecap="round"/>
<path d="M626.251 346.254L683.861 269.44" stroke="black" stroke-width="10"/>
</g>
</g>
</g>
<defs>
<clipPath id="clip0_1_196">
<rect width="823" height="823" fill="white" transform="translate(102 101)"/>
</clipPath>
</defs>
</svg>
