<svg version="1.1" id="Layer_1" xmlns="http://www.w3.org/2000/svg" xmlns:xlink="http://www.w3.org/1999/xlink" x="0px" y="0px" viewBox="0 0 500 500" style="width: 197px;" xml:space="preserve" data-imageid="science-43" imageName="Science" class="illustrations_image">
<style type="text/css">
	.st0_science-43{fill:#FFFFFF;}
	.st1_science-43{fill:#093F68;}
	.st2_science-43{fill:#68E1FD;}
	.st3_science-43{fill:#FFBC0E;}
	.st4_science-43{fill:#F56132;}
	.st5_science-43{fill:#70CC40;}
</style>
<g id="science_science-43">
	<path class="st0_science-43" d="M280.2,214.7v-83.3h2.6c7,0,12.7-5.7,12.7-12.7v-1.6c0-7-5.7-12.7-12.7-12.7h-65.6c-7,0-12.7,5.7-12.7,12.7&#10;&#9;&#9;v1.6c0,7,5.7,12.7,12.7,12.7h2.6v83.3c-56.5,16.7-88.8,76-72.1,132.5s76,88.8,132.5,72.1c56.5-16.7,88.8-76,72.1-132.5&#10;&#9;&#9;C342.1,252.1,314.9,224.9,280.2,214.7z"/>
	<path class="st1_science-43" d="M250,425.5c-59.9,0-108.5-48.6-108.5-108.6c0-47.6,31-89.6,76.5-103.6v-80.1h-0.8c-8,0-14.5-6.5-14.5-14.5&#10;&#9;&#9;v-1.6c0-8,6.5-14.5,14.5-14.5h65.6c8,0,14.5,6.5,14.5,14.5v1.6c0,8-6.5,14.5-14.5,14.5H282v80.1c57.3,17.7,89.3,78.5,71.6,135.7&#10;&#9;&#9;C339.6,394.5,297.6,425.5,250,425.5z M217.2,106.3c-6,0-10.8,4.9-10.9,10.9v1.6c0,6,4.9,10.8,10.9,10.9h2.6c1,0,1.8,0.8,1.8,1.8&#10;&#9;&#9;l0,0v83.3c0,0.8-0.5,1.5-1.3,1.8c-55.5,16.4-87.3,74.7-70.9,130.2s74.7,87.3,130.2,70.9s87.3-74.7,70.9-130.2&#10;&#9;&#9;c-10.1-34.1-36.8-60.8-70.9-70.9c-0.8-0.2-1.3-0.9-1.3-1.8v-83.3c0-1,0.8-1.8,1.8-1.8h2.6c6,0,10.8-4.9,10.9-10.8v-1.6&#10;&#9;&#9;c0-6-4.9-10.9-10.9-10.9L217.2,106.3z"/>
	<circle class="st2_science-43 targetColor" cx="249.2" cy="319.3" r="18.8" style="fill: rgb(104, 225, 253);"/>
	<path class="st1_science-43" d="M249.2,339.9c-11.4,0-20.6-9.2-20.6-20.6c0-11.4,9.2-20.6,20.6-20.6c11.4,0,20.6,9.2,20.6,20.6&#10;&#9;&#9;C269.8,330.7,260.6,339.9,249.2,339.9z M249.2,302.3c-9.4,0-17,7.6-17,17c0,9.4,7.6,17,17,17s17-7.6,17-17l0,0&#10;&#9;&#9;C266.2,309.9,258.6,302.3,249.2,302.3L249.2,302.3L249.2,302.3z"/>
	<path class="st1_science-43" d="M290,392.3c-6.9,0-15.6-3.3-25.3-9.8c-14.4-9.6-29.6-25.1-42.9-43.6s-23-37.9-27.5-54.6&#10;&#9;&#9;c-4.6-17.3-3-29.8,4.6-35.2c15.4-11,49.5,11.2,77.7,50.5s38.2,78.8,22.9,89.8C296.7,391.4,293.4,392.4,290,392.3z M208.5,249.9&#10;&#9;&#9;c-2.6-0.1-5.3,0.7-7.4,2.2l0,0c-6.2,4.4-7.4,15.8-3.2,31.3c4.3,16.3,13.9,35.2,26.9,53.4s27.9,33.3,41.9,42.7&#10;&#9;&#9;c13.3,8.9,24.5,11.4,30.7,7c13.2-9.5,2.4-48.3-23.7-84.7C251.6,271,224.4,249.9,208.5,249.9z M200,250.6L200,250.6z"/>
	<path class="st1_science-43" d="M208.5,392.3c-3.4,0.1-6.7-0.9-9.5-2.8c-7.6-5.4-9.2-17.9-4.6-35.2c4.4-16.7,14.2-36.1,27.5-54.6&#10;&#9;&#9;c28.2-39.4,62.3-61.6,77.7-50.5c7.6,5.4,9.2,18,4.6,35.2c-4.5,16.7-14.2,36.1-27.5,54.6s-28.5,34-42.9,43.6&#10;&#9;&#9;C224.1,389,215.4,392.3,208.5,392.3z M289.9,249.9c-15.9,0-43.1,21-65.1,51.8c-13,18.2-22.6,37.1-26.9,53.4&#10;&#9;&#9;c-4.1,15.5-3,26.9,3.2,31.3s17.4,1.9,30.7-7c14-9.3,28.9-24.5,41.9-42.7s22.6-37.1,26.9-53.4c4.1-15.5,3-26.9-3.2-31.3&#10;&#9;&#9;C295.2,250.6,292.6,249.8,289.9,249.9L289.9,249.9z"/>
	<path class="st1_science-43" d="M249.2,353c-48.4,0-86.3-14.8-86.3-33.7s37.9-33.7,86.3-33.7s86.3,14.8,86.3,33.7S297.6,353,249.2,353z&#10;&#9;&#9; M249.2,289.2c-44.8,0-82.7,13.8-82.7,30.1s37.9,30.1,82.7,30.1s82.7-13.8,82.7-30.1S294,289.2,249.2,289.2L249.2,289.2z"/>
	<circle class="st3_science-43" cx="174.9" cy="333.5" r="7.4"/>
	<path class="st1_science-43" d="M174.9,342.7c-5.1,0-9.2-4.1-9.2-9.2c0-5.1,4.1-9.2,9.2-9.2c5.1,0,9.2,4.1,9.2,9.2c0,0,0,0,0,0&#10;&#9;&#9;C184.2,338.6,180,342.7,174.9,342.7z M174.9,327.9c-3.1,0-5.6,2.5-5.6,5.6c0,3.1,2.5,5.6,5.6,5.6c3.1,0,5.6-2.5,5.6-5.6l0,0&#10;&#9;&#9;C180.5,330.4,178,327.9,174.9,327.9z"/>
	<circle class="st4_science-43" cx="304.9" cy="377.6" r="7.4"/>
	<path class="st1_science-43" d="M304.9,386.8c-5.1,0-9.2-4.1-9.2-9.2c0-5.1,4.1-9.2,9.2-9.2c5.1,0,9.2,4.1,9.2,9.2c0,0,0,0,0,0&#10;&#9;&#9;C314.1,382.7,310,386.8,304.9,386.8z M304.9,372c-3.1,0-5.6,2.5-5.6,5.6c0,3.1,2.5,5.6,5.6,5.6c3.1,0,5.6-2.5,5.6-5.6c0,0,0,0,0,0&#10;&#9;&#9;C310.5,374.5,308,372,304.9,372L304.9,372z"/>
	<circle class="st5_science-43" cx="285.1" cy="289.7" r="7.4"/>
	<path class="st1_science-43" d="M285.1,298.9c-5.1,0-9.2-4.1-9.2-9.2c0-5.1,4.1-9.2,9.2-9.2c5.1,0,9.2,4.1,9.2,9.2c0,0,0,0,0,0&#10;&#9;&#9;C294.3,294.8,290.2,298.9,285.1,298.9z M285.1,284.1c-3.1,0-5.6,2.5-5.6,5.6c0,3.1,2.5,5.6,5.6,5.6c3.1,0,5.6-2.5,5.6-5.6&#10;&#9;&#9;c0,0,0,0,0,0C290.7,286.6,288.2,284.1,285.1,284.1z"/>
</g>
<g id="bubbles_science-43">
	<circle class="st2_science-43 targetColor" cx="239.9" cy="230" r="10.2" style="fill: rgb(104, 225, 253);"/>
	<path class="st1_science-43" d="M239.9,242.1c-6.6,0-12-5.4-12-12s5.4-12,12-12s12,5.4,12,12l0,0C251.8,236.7,246.5,242,239.9,242.1z&#10;&#9;&#9; M239.9,221.6c-4.6,0-8.4,3.7-8.4,8.4s3.7,8.4,8.4,8.4c4.6,0,8.4-3.7,8.4-8.4c0,0,0,0,0,0C248.2,225.4,244.5,221.6,239.9,221.6&#10;&#9;&#9;L239.9,221.6z"/>
	<circle class="st2_science-43 targetColor" cx="236.8" cy="167" r="7.2" style="fill: rgb(104, 225, 253);"/>
	<path class="st1_science-43" d="M236.8,176c-5,0-9-4-9-9s4-9,9-9s9,4,9,9S241.8,176,236.8,176z M236.8,161.6c-3,0-5.4,2.4-5.4,5.4&#10;&#9;&#9;c0,3,2.4,5.4,5.4,5.4c3,0,5.4-2.4,5.4-5.4c0,0,0,0,0,0C242.2,164,239.8,161.7,236.8,161.6L236.8,161.6z"/>
	
		<ellipse transform="matrix(0.1602 -0.9871 0.9871 0.1602 28.1356 418.7694)" class="st2_science-43 targetColor" cx="260.2" cy="192.9" rx="12.2" ry="12.2" style="fill: rgb(104, 225, 253);"/>
	<path class="st1_science-43" d="M260.2,206.9c-7.8,0-14.1-6.3-14.1-14.1c0-7.8,6.3-14.1,14.1-14.1c7.8,0,14.1,6.3,14.1,14.1c0,0,0,0,0,0&#10;&#9;&#9;C274.2,200.6,267.9,206.9,260.2,206.9z M260.2,182.4c-5.7,0-10.4,4.7-10.4,10.4s4.7,10.4,10.4,10.4c5.7,0,10.4-4.7,10.4-10.4&#10;&#9;&#9;c0,0,0,0,0,0C270.6,187.1,265.9,182.5,260.2,182.4z"/>
	<circle class="st2_science-43 targetColor" cx="253.4" cy="137.7" r="14.2" style="fill: rgb(104, 225, 253);"/>
	<path class="st1_science-43" d="M253.4,153.8c-8.8,0-16-7.2-16-16s7.2-16,16-16s16,7.2,16,16v0C269.3,146.6,262.2,153.7,253.4,153.8z&#10;&#9;&#9; M253.4,125.4c-6.8,0-12.4,5.5-12.4,12.4c0,6.8,5.5,12.4,12.4,12.4c6.8,0,12.4-5.5,12.4-12.4l0,0&#10;&#9;&#9;C265.7,130.9,260.2,125.4,253.4,125.4z"/>
	<circle class="st2_science-43 targetColor" cx="234.6" cy="106.2" r="9.4" style="fill: rgb(104, 225, 253);"/>
	<path class="st1_science-43" d="M234.6,117.5c-6.2,0-11.2-5-11.2-11.2s5-11.2,11.2-11.2s11.2,5,11.2,11.2C245.8,112.4,240.8,117.5,234.6,117.5&#10;&#9;&#9;z M234.6,98.7c-4.2,0-7.6,3.4-7.6,7.6s3.4,7.6,7.6,7.6c4.2,0,7.6-3.4,7.6-7.6c0,0,0,0,0,0C242.2,102.1,238.8,98.7,234.6,98.7z"/>
	<ellipse transform="matrix(0.1602 -0.9871 0.9871 0.1602 138.3268 328.5237)" class="st2_science-43 targetColor" cx="262.2" cy="83" rx="6.6" ry="6.6" style="fill: rgb(104, 225, 253);"/>
	<path class="st1_science-43" d="M262.2,91.4c-4.7,0-8.5-3.8-8.5-8.5s3.8-8.5,8.5-8.5c4.7,0,8.5,3.8,8.5,8.5c0,0,0,0,0,0&#10;&#9;&#9;C270.7,87.7,266.9,91.4,262.2,91.4z M262.2,78.2c-2.7,0-4.8,2.1-4.8,4.8c0,2.7,2.1,4.8,4.8,4.8c2.7,0,4.8-2.1,4.8-4.8c0,0,0,0,0,0&#10;&#9;&#9;C267,80.3,264.9,78.2,262.2,78.2z"/>
</g>
</svg>