<svg width="60" height="60" viewBox="0 0 60 60" fill="none" xmlns="http://www.w3.org/2000/svg">
<g clip-path="url(#clip0_1_80)">
<mask id="mask0_1_80" style="mask-type:luminance" maskUnits="userSpaceOnUse" x="0" y="0" width="60" height="60">
<path d="M60 0H0V60H60V0Z" fill="white"/>
</mask>
<g mask="url(#mask0_1_80)">
<path d="M60 0H0V60H60V0Z" fill="white"/>
<path d="M7.2 49.8V10.425C7.2 7.31838 9.71839 4.79999 12.825 4.79999H50.5124C51.4446 4.79999 52.2 5.55551 52.2 6.48749V43.3715" stroke="black" stroke-width="3" stroke-linecap="round"/>
<path d="M12.825 44.175H52.2" stroke="black" stroke-width="3" stroke-linecap="round"/>
<path d="M12.825 55.425H52.2" stroke="black" stroke-width="3" stroke-linecap="round"/>
<path d="M12.825 55.425C9.71839 55.425 7.2 52.9067 7.2 49.8C7.2 46.6933 9.71839 44.175 12.825 44.175" stroke="black" stroke-width="3" stroke-linecap="round" stroke-linejoin="round"/>
<path fill-rule="evenodd" clip-rule="evenodd" d="M16.8 45.6H12V52.8H12.5525L14.4 50.4L16.2475 52.8H16.8V45.6Z" fill="black"/>
<path d="M22.58 39.5975L22.5974 31.1975" stroke="black" stroke-width="2"/>
<path d="M26.58 35.2001H18.18" stroke="black" stroke-width="2"/>
<path d="M45.3644 8.54694L45.073 14.9272L39.2886 10.5158L45.3644 8.54694Z" fill="black"/>
<path d="M30.6247 18.4447C31.7016 17.3678 33.0736 16.6345 34.5672 16.3374C36.0608 16.0403 37.6091 16.1928 39.0161 16.7756C40.4231 17.3584 41.6257 18.3454 42.4717 19.6116C43.3178 20.8778 43.7694 22.3666 43.7694 23.8895C43.7694 25.4124 43.3178 26.9011 42.4717 28.1674C41.6257 29.4336 40.4231 30.4205 39.0161 31.0033C37.6091 31.5862 36.0608 31.7386 34.5672 31.4416C33.0736 31.1444 31.7016 30.411 30.6247 29.3342L32.5303 27.4285C33.2303 28.1285 34.1221 28.6051 35.093 28.7983C36.0638 28.9914 37.0703 28.8923 37.9848 28.5134C38.8993 28.1347 39.681 27.4932 40.231 26.6701C40.7809 25.847 41.0744 24.8794 41.0744 23.8895C41.0744 22.8996 40.7809 21.9319 40.231 21.1088C39.681 20.2858 38.8993 19.6442 37.9848 19.2654C37.0702 18.8867 36.0638 18.7876 35.093 18.9806C34.1221 19.1737 33.2303 19.6505 32.5303 20.3504L30.6247 18.4447Z" fill="black"/>
<path d="M28.3343 29.3342C27.2574 30.4111 25.8853 31.1444 24.3917 31.4415C22.898 31.7387 21.3498 31.5861 19.9428 31.0033C18.5358 30.4206 17.3333 29.4336 16.4872 28.1673C15.641 26.9011 15.1895 25.4124 15.1895 23.8895C15.1895 22.3665 15.641 20.8778 16.4872 19.6116C17.3333 18.3453 18.5358 17.3583 19.9428 16.7756C21.3498 16.1928 22.898 16.0404 24.3917 16.3374C25.8853 16.6345 27.2574 17.3679 28.3343 18.4447L26.4286 20.3504C25.7286 19.6505 24.8368 19.1738 23.866 18.9806C22.895 18.7875 21.8887 18.8867 20.9742 19.2655C20.0597 19.6442 19.278 20.2857 18.728 21.1088C18.1781 21.9319 17.8846 22.8996 17.8846 23.8895C17.8846 24.8793 18.1781 25.847 18.728 26.6701C19.278 27.4932 20.0597 28.1347 20.9742 28.5135C21.8887 28.8923 22.895 28.9914 23.866 28.7983C24.8368 28.6052 25.7286 28.1285 26.4286 27.4285L28.3343 29.3342Z" fill="black"/>
<path d="M26.58 22.0999H32.1799" stroke="black" stroke-linecap="round"/>
<path d="M26.58 24.9H32.1799" stroke="black" stroke-linecap="round"/>
<path d="M38.22 17.88L42.42 12.28" stroke="black" stroke-width="2"/>
</g>
</g>
<defs>
<clipPath id="clip0_1_80">
<rect width="60" height="60" fill="white"/>
</clipPath>
</defs>
</svg>
