<svg width="215" height="215" viewBox="0 0 215 215" fill="none" xmlns="http://www.w3.org/2000/svg">
<g clip-path="url(#clip0_38_8)">
<mask id="mask0_38_8" style="mask-type:luminance" maskUnits="userSpaceOnUse" x="0" y="0" width="215" height="215">
<path d="M215 0H0V215H215V0Z" fill="white"/>
</mask>
<g mask="url(#mask0_38_8)">
<path d="M215 0H0V215H215V0Z" fill="white"/>
<path d="M25.8 178.45V37.3562C25.8 26.2242 34.8242 17.2 45.9562 17.2H181.003C184.343 17.2 187.05 19.9073 187.05 23.2469V155.414" stroke="black" stroke-width="10" stroke-linecap="round"/>
<path d="M45.9562 158.294H187.05" stroke="black" stroke-width="10" stroke-linecap="round"/>
<path d="M45.9562 198.606H187.05" stroke="black" stroke-width="10" stroke-linecap="round"/>
<path d="M45.9562 198.606C34.8242 198.606 25.8 189.582 25.8 178.45C25.8 167.318 34.8242 158.294 45.9562 158.294" stroke="black" stroke-width="10" stroke-linecap="round" stroke-linejoin="round"/>
<path fill-rule="evenodd" clip-rule="evenodd" d="M60 163H43V188H44.9567L51.5 179.667L58.0433 188H60V163Z" fill="black"/>
<path d="M80.9118 141.891L80.9742 111.791" stroke="black" stroke-width="5"/>
<path d="M95.245 126.134H65.145" stroke="black" stroke-width="5"/>
<path d="M162.556 30.6265L161.511 53.489L140.784 37.6815L162.556 30.6265Z" fill="black"/>
<path d="M109.739 66.0936C113.597 62.2348 118.514 59.607 123.866 58.5424C129.218 57.4777 134.766 58.0242 139.808 60.1127C144.849 62.2008 149.159 65.7375 152.19 70.2749C155.222 74.8123 156.84 80.1468 156.84 85.604C156.84 91.0611 155.222 96.3957 152.19 100.933C149.159 105.47 144.849 109.007 139.808 111.095C134.766 113.184 129.218 113.73 123.866 112.666C118.514 111.601 113.597 108.973 109.739 105.114L116.567 98.2855C119.075 100.794 122.271 102.502 125.75 103.194C129.229 103.886 132.835 103.531 136.112 102.173C139.389 100.816 142.19 98.5173 144.161 95.5679C146.132 92.6186 147.183 89.151 147.183 85.604C147.183 82.0569 146.132 78.5894 144.161 75.64C142.19 72.6906 139.389 70.3919 136.112 69.0344C132.835 67.6773 129.229 67.3221 125.75 68.014C122.271 68.7058 119.075 70.4142 116.567 72.9224L109.739 66.0936Z" fill="black"/>
<path d="M101.531 105.114C97.6723 108.973 92.7557 111.601 87.4035 112.666C82.0513 113.73 76.5034 113.184 71.4617 111.095C66.4199 109.007 62.1109 105.47 59.079 100.933C56.047 96.3957 54.429 91.0611 54.429 85.604C54.429 80.1468 56.047 74.8123 59.079 70.2749C62.1109 65.7375 66.4199 62.2008 71.4617 60.1127C76.5034 58.0242 82.0513 57.4781 87.4035 58.5423C92.7557 59.607 97.6723 62.2352 101.531 66.0936L94.7023 72.9224C92.1941 70.4142 88.9984 68.7063 85.5197 68.014C82.0405 67.3221 78.4346 67.6773 75.1575 69.0348C71.8805 70.3919 69.0795 72.6906 67.1088 75.64C65.1381 78.5894 64.0863 82.0569 64.0863 85.604C64.0863 89.151 65.1381 92.6185 67.1088 95.5679C69.0795 98.5173 71.8805 100.816 75.1575 102.174C78.4346 103.531 82.0405 103.886 85.5197 103.194C88.9984 102.502 92.1941 100.794 94.7023 98.2855L101.531 105.114Z" fill="black"/>
<path d="M95.245 79.1914H115.311" stroke="black" stroke-width="5" stroke-linecap="round"/>
<path d="M95.245 89.225H115.311" stroke="black" stroke-width="5" stroke-linecap="round"/>
<path d="M136.955 64.07L152.005 44.0032" stroke="black" stroke-width="5"/>
</g>
</g>
<defs>
<clipPath id="clip0_38_8">
<rect width="215" height="215" fill="white"/>
</clipPath>
</defs>
</svg>
