<svg width="48" height="48" viewBox="0 0 48 48" fill="none" xmlns="http://www.w3.org/2000/svg">
<path d="M17.4575 35.8045H30.5925C31.0892 35.8045 31.503 35.6368 31.834 35.3015C32.165 34.9662 32.3305 34.5507 32.3305 34.055C32.3305 33.5627 32.165 33.1498 31.834 32.8165C31.503 32.4832 31.0892 32.3165 30.5925 32.3165H17.4455C16.9155 32.3165 16.4933 32.4838 16.179 32.8185C15.8647 33.1528 15.7075 33.5675 15.7075 34.0625C15.7075 34.5572 15.8658 34.9712 16.1825 35.3045C16.4992 35.6378 16.9242 35.8045 17.4575 35.8045ZM17.4575 27.126H30.6045C31.0968 27.126 31.5095 26.9583 31.8425 26.623C32.1758 26.2877 32.3425 25.8722 32.3425 25.3765C32.3425 24.8845 32.1758 24.4737 31.8425 24.144C31.5095 23.8147 31.0968 23.65 30.6045 23.65H17.4455C16.9155 23.65 16.4933 23.8158 16.179 24.1475C15.8647 24.4788 15.7075 24.8907 15.7075 25.383C15.7075 25.8753 15.8658 26.289 16.1825 26.624C16.4992 26.9587 16.9242 27.126 17.4575 27.126ZM11.0315 44.86C10.0178 44.86 9.12017 44.472 8.3385 43.696C7.55717 42.92 7.1665 42.0195 7.1665 40.9945V7.00551C7.1665 5.97718 7.55717 5.07384 8.3385 4.29551C9.12017 3.51751 10.0178 3.12851 11.0315 3.12851H27.3695C27.9012 3.12851 28.408 3.23517 28.89 3.44851C29.3717 3.66184 29.7833 3.94568 30.125 4.30001L39.662 13.787C40.014 14.1673 40.2993 14.5918 40.518 15.0605C40.7363 15.5288 40.8455 16.0435 40.8455 16.6045V40.9945C40.8455 42.0195 40.4537 42.92 39.67 43.696C38.886 44.472 37.9855 44.86 36.9685 44.86H11.0315ZM27.0215 14.8325V7.00551H11.0315V40.9945H36.9685V16.79H28.9795C28.4145 16.79 27.947 16.605 27.577 16.235C27.2067 15.865 27.0215 15.3975 27.0215 14.8325Z" fill="#059B9A"/>
</svg>
