<svg viewBox="0 0 1080 1080" fill="none" xmlns="http://www.w3.org/2000/svg">      <defs>  <filter id="filter" x="-20%" y="-20%" width="140%" height="140%" filterUnits="objectBoundingBox" primitiveUnits="userSpaceOnUse" color-interpolation-filters="linearRGB">    <feMorphology operator="dilate" radius="20 20" in="SourceAlpha" result="morphology"/>    <feFlood flood-color="#ffffff" flood-opacity="1" result="flood"/>    <feComposite in="flood" in2="morphology" operator="in" result="composite"/>    <feMerge result="merge">          <feMergeNode in="composite" result="mergeNode"/>      <feMergeNode in="SourceGraphic" result="mergeNode1"/>      </feMerge>  </filter></defs>      <g id="notion-avatar" filter="url(#filter)">        <g id="notion-avatar-face" fill="#ffffff">      <!--?xml version="1.0" encoding="UTF-8"?-->    <title>Face/ 8</title>    <g id="Face/-8" stroke="none" stroke-width="1" fill-rule="evenodd" stroke-linecap="round" stroke-linejoin="round">        <path d="M532,379 C664.54834,379 772,486.45166 772,619 C772,751.54834 724.54834,899 592,899 C492.560218,899 373.476049,816.010833 320.189513,718.584987 C317.498129,718.859681 314.765451,719 312,719 C267.81722,719 232,683.18278 232,639 C232,599.134956 261.158843,566.080325 299.312086,560.00055 C325.599297,455.979213 419.809919,379 532,379 Z M295.858895,624.545187 L304.141105,655.454813" id="Path" stroke="#000000" stroke-width="24"/>    </g>    </g><g id="notion-avatar-nose">      <!--?xml version="1.0" encoding="UTF-8"?-->    <title>Nose/ 0</title>    <g id="Nose/-0" stroke="none" stroke-width="1" fill="none" fill-rule="evenodd" stroke-linecap="round" stroke-linejoin="round">        <line x1="637" y1="596" x2="661.856189" y2="682.499537" id="Line" stroke="#000000" stroke-width="16" transform="translate(649.428094, 639.249768) rotate(1.032339) translate(-649.428094, -639.249768) "/>    </g>    </g><g id="notion-avatar-mouth">      <!--?xml version="1.0" encoding="UTF-8"?-->    <title>Mouth/ 9</title>    <g id="Mouth/-9" stroke="none" stroke-width="1" fill="none" fill-rule="evenodd" stroke-linecap="round" stroke-linejoin="round">        <path d="M532,760 C569.387146,756.771376 597.387146,753.438043 616,750 C634.612854,746.561957 658.946187,740.228624 689,731 L667,780 C644.19345,787.762145 627.19345,792.095479 616,793 C604.80655,793.904521 588.80655,792.237855 568,788 L532,760 Z" id="Path" stroke="#000000" stroke-width="16"/>    </g>    </g><g id="notion-avatar-eyes">      <!--?xml version="1.0" encoding="UTF-8"?-->    <title>Eyes/ 2</title>    <g id="Eyes/-2" stroke="none" stroke-width="1" fill="none" fill-rule="evenodd">        <path d="M570,516 C587.673112,516 602,530.326888 602,548 C602,565.673112 587.673112,580 570,580 C552.326888,580 538,565.673112 538,548 C538,530.326888 552.326888,516 570,516 Z M708,516 C725.673112,516 740,530.326888 740,548 C740,565.673112 725.673112,580 708,580 C690.326888,580 676,565.673112 676,548 C676,530.326888 690.326888,516 708,516 Z" id="Combined-Shape" fill="#000000"/>    </g>    </g><g id="notion-avatar-eyebrows">      <g id="Eyebrows/ 15"><g id="Group"><path id="Path" fill-rule="evenodd" clip-rule="evenodd" d="M622.289 506.124C622.289 506.124 622.95 493.517 619.376 491.698C615.802 489.88 558.683 477.099 542.118 478.134C525.552 479.169 502.752 494.15 502.752 494.15C502.752 494.15 526.26 485.069 547.179 487.167C568.098 489.265 622.289 506.124 622.289 506.124Z" fill="black" stroke="black" stroke-width="4" stroke-linecap="round" stroke-linejoin="round"/><path id="Path_2" fill-rule="evenodd" clip-rule="evenodd" d="M654.711 506.124C654.711 506.124 654.05 493.517 657.624 491.698C661.198 489.88 718.317 477.099 734.882 478.134C751.448 479.169 774.248 494.15 774.248 494.15C774.248 494.15 750.74 485.069 729.821 487.167C708.902 489.265 654.711 506.124 654.711 506.124Z" fill="black" stroke="black" stroke-width="4" stroke-linecap="round" stroke-linejoin="round"/></g></g>    </g><g id="notion-avatar-glasses">      <g id="Glasses/ 13"><g id="Group"><path id="Path" d="M594.966 482.529H684.378" stroke="black" stroke-width="8" stroke-linecap="round" stroke-linejoin="round"/><path id="Path_2" d="M593 517.765C593 517.765 615.694 501 638 501C660.306 501 682.412 517.765 682.412 517.765" stroke="black" stroke-width="8" stroke-linecap="round" stroke-linejoin="round"/><path id="Path_3" d="M510.484 517.569L293.827 555.771" stroke="black" stroke-width="16" stroke-linecap="round" stroke-linejoin="round"/><g id="Rectangle"><path id="Mask" fill-rule="evenodd" clip-rule="evenodd" d="M470.242 498.62C502.983 452.135 598.089 462.262 619.362 504.282C640.636 546.302 563.647 605 516.916 605C470.186 605 437.501 545.106 470.242 498.62Z" fill="#0C0C0C"/><mask id="mask0_0_1173" style="mask-type:alpha" maskUnits="userSpaceOnUse" x="457" y="468" width="166" height="137"><path id="Mask_2" fill-rule="evenodd" clip-rule="evenodd" d="M470.242 498.62C502.983 452.135 598.089 462.262 619.362 504.282C640.636 546.302 563.647 605 516.916 605C470.186 605 437.501 545.106 470.242 498.62Z" fill="white"/></mask><g mask="url(#mask0_0_1173)"><rect id="Rectangle_2" x="549.624" y="439.067" width="210" height="28" transform="rotate(60 549.624 439.067)" fill="white"/></g></g><g id="Rectangle_3"><path id="Mask_3" fill-rule="evenodd" clip-rule="evenodd" d="M804.758 498.62C772.017 452.135 676.911 462.262 655.638 504.282C634.364 546.302 711.353 605 758.084 605C804.814 605 837.499 545.106 804.758 498.62Z" fill="#0C0C0C"/><mask id="mask1_0_1173" style="mask-type:alpha" maskUnits="userSpaceOnUse" x="652" y="468" width="166" height="137"><path id="Mask_4" fill-rule="evenodd" clip-rule="evenodd" d="M804.758 498.62C772.017 452.135 676.911 462.262 655.638 504.282C634.364 546.302 711.353 605 758.084 605C804.814 605 837.499 545.106 804.758 498.62Z" fill="white"/></mask><g mask="url(#mask1_0_1173)"><rect id="Rectangle_4" x="739.624" y="439.067" width="210" height="28" transform="rotate(60 739.624 439.067)" fill="white"/></g></g><path id="Path_4" fill-rule="evenodd" clip-rule="evenodd" d="M470.242 498.62C502.983 452.135 598.089 462.262 619.362 504.282C640.636 546.302 563.647 605 516.916 605C470.186 605 437.501 545.106 470.242 498.62Z" stroke="black" stroke-width="8" stroke-linecap="round" stroke-linejoin="round"/><path id="Path_5" fill-rule="evenodd" clip-rule="evenodd" d="M804.758 498.62C772.017 452.135 676.911 462.262 655.638 504.282C634.364 546.302 711.353 605 758.084 605C804.814 605 837.499 545.106 804.758 498.62Z" stroke="black" stroke-width="8" stroke-linecap="round" stroke-linejoin="round"/></g></g>    </g><g id="notion-avatar-hair">      <g id="Hairstyle/ 46"><path id="Path" fill-rule="evenodd" clip-rule="evenodd" d="M328.115 564.825L365.998 655C365.998 655 401.998 529.592 401.998 512C401.998 494.408 348.294 499.522 371.998 469C383.662 453.981 472.998 379 472.998 379C472.998 379 409.998 385 346.998 444C283.998 503 289.998 565 289.998 565L328.115 564.825Z" fill="black" stroke="black" stroke-width="12" stroke-linecap="round" stroke-linejoin="round"/></g>    </g><g id="notion-avatar-accessories">      <!--?xml version="1.0" encoding="UTF-8"?-->    <title>Accessories/ 0</title>    <g id="Accessories/-0" stroke="none" stroke-width="1" fill="none" fill-rule="evenodd"/>    </g><g id="notion-avatar-details">      <!--?xml version="1.0" encoding="UTF-8"?-->    <title>Details/ 0</title>    <g id="Details/-0" stroke="none" stroke-width="1" fill="none" fill-rule="evenodd"/>    </g><g id="notion-avatar-beard">      <!--?xml version="1.0" encoding="UTF-8"?-->    <title>Beard/ 0</title>    <g id="Beard/-0" stroke="none" stroke-width="1" fill="none" fill-rule="evenodd"/>    </g>      </g>      </svg>