<svg viewBox="0 0 1080 1080" fill="none" xmlns="http://www.w3.org/2000/svg">      <defs>  <filter id="filter" x="-20%" y="-20%" width="140%" height="140%" filterUnits="objectBoundingBox" primitiveUnits="userSpaceOnUse" color-interpolation-filters="linearRGB">    <feMorphology operator="dilate" radius="20 20" in="SourceAlpha" result="morphology"/>    <feFlood flood-color="#ffffff" flood-opacity="1" result="flood"/>    <feComposite in="flood" in2="morphology" operator="in" result="composite"/>    <feMerge result="merge">          <feMergeNode in="composite" result="mergeNode"/>      <feMergeNode in="SourceGraphic" result="mergeNode1"/>      </feMerge>  </filter></defs>      <g id="notion-avatar" filter="url(#filter)">        <g id="notion-avatar-face" fill="#ffffff">      <!--?xml version="1.0" encoding="UTF-8"?-->    <title>Face/ 2</title>    <g id="Face/-2" stroke="none" stroke-width="1" fill-rule="evenodd" stroke-linecap="round" stroke-linejoin="round">        <path d="M532,379 C664.54834,379 772,486.45166 772,619 C772,751.54834 664.54834,899 532,899 C432.699202,899 347.483933,816.242653 310.982017,718.993409 C267.268677,718.448846 232,682.843144 232,639 C232,599.134956 261.158843,566.080325 299.312086,560.00055 C325.599297,455.979213 419.809919,379 532,379 Z M295.858895,624.545187 L304.141105,655.454813" id="Path" stroke="#000000" stroke-width="24"/>    </g>    </g><g id="notion-avatar-nose">      <!--?xml version="1.0" encoding="UTF-8"?-->    <title>Nose/ 7</title>    <g id="Nose/-7" stroke="none" stroke-width="1" fill="none" fill-rule="evenodd" stroke-linecap="round" stroke-linejoin="round">        <path d="M649,600 C669,606.666667 679,620 679,640 C679,660 669,673.333333 649,680" id="Path" stroke="#000000" stroke-width="16"/>    </g>    </g><g id="notion-avatar-mouth">      <g id="Mouth/ 19"><g id="Group"><path id="Path" fill-rule="evenodd" clip-rule="evenodd" d="M545 766.788C545 766.788 575.886 767.669 591.667 764.852C607.447 762.036 624.704 752.441 631.784 751.3C638.863 750.158 644.883 756.14 646.52 756.14C648.158 756.14 652.251 750.332 660.439 751.3C668.626 752.268 685 766.788 685 766.788C685 766.788 666.17 774.533 636.696 774.533C581.842 777.437 545 766.788 545 766.788Z" stroke="black" stroke-width="12" stroke-linecap="round" stroke-linejoin="round"/><path id="Path_2" d="M681 770C681 770 666 802 637 802C608 802 555 768 555 768L527 765" stroke="black" stroke-width="12" stroke-linecap="round" stroke-linejoin="round"/></g></g>    </g><g id="notion-avatar-eyes">      <!--?xml version="1.0" encoding="UTF-8"?-->    <title>Eyes/ 6</title>    <g id="Eyes/-6" stroke="none" stroke-width="1" fill="none" fill-rule="evenodd">        <g id="Group" transform="translate(518.000000, 518.575690)">            <circle id="Oval" fill="#000000" cx="48.2285714" cy="20" r="20"/>            <path d="M0,22.4243101 C16,9.09097677 32,2.42431011 48,2.42431011 C64,2.42431011 80,9.09097677 96,22.4243101" id="Path" stroke="#000000" stroke-width="12" stroke-linecap="round" stroke-linejoin="round"/>            <circle id="Oval" fill="#000000" transform="translate(193.771429, 20.000000) scale(-1, 1) translate(-193.771429, -20.000000) " cx="193.771429" cy="20" r="20"/>            <path d="M146,22.4243101 C162,9.09097677 178,2.42431011 194,2.42431011 C210,2.42431011 226,9.09097677 242,22.4243101" id="Path" stroke="#000000" stroke-width="12" stroke-linecap="round" stroke-linejoin="round" transform="translate(194.000000, 12.424310) scale(-1, 1) translate(-194.000000, -12.424310) "/>        </g>    </g>    </g><g id="notion-avatar-eyebrows">      <!--?xml version="1.0" encoding="UTF-8"?-->    <title>Eyebrows/ 0</title>    <g id="Eyebrows/-0" stroke="none" stroke-width="1" fill="none" fill-rule="evenodd" stroke-linecap="round" stroke-linejoin="round">        <g id="Group" transform="translate(525.000000, 492.000000)" stroke="#000000" stroke-width="16">            <path d="M0,16 C12.8888889,5.33333333 27.8888889,0 45,0 C62.1111111,0 77.1111111,5.33333333 90,16" id="Path"/>            <path d="M138,16 C150.888889,5.33333333 165.888889,0 183,0 C200.111111,0 215.111111,5.33333333 228,16" id="Path"/>        </g>    </g>    </g><g id="notion-avatar-glasses">      <!--?xml version="1.0" encoding="UTF-8"?-->    <title>Glasses/ 5</title>    <g id="Glasses/-5" stroke="none" stroke-width="1" fill="none" fill-rule="evenodd" stroke-linecap="round" stroke-linejoin="round">        <g id="Group" transform="translate(289.000000, 500.000000)" stroke="#000000">            <path d="M339.818182,40.2109589 C338.074175,42.9080712 336.862054,47.8943725 336.181818,55.169863 L327.454545,55.169863 C324.545455,28.1013699 305.393939,14.0922374 270,13.1424658 C240.424242,11.2429224 222.727273,23.1150685 216.909091,48.7589041 L205.272727,48.7589041 L190,33.8 L190,10.2931507 C222.484848,2.22009132 249.151515,-1.10410959 270,0.320547945 C285.225486,1.36096427 303.25963,5.13798521 324.62746,9.93254373 L332.545455,11.7178082 C336.214681,12.54746 342.032863,13.4972317 350,14.5671233 L352.073632,14.2846662 C358.984501,13.3293325 364.111473,12.4737132 367.454545,11.7178082 L376.341511,9.71531602 C397.286215,5.02415827 415.005203,1.34520038 430,0.320547945 C450.64,-1.08986301 476.9824,2.15408219 509.0272,10.0523836 L510,10.2931507 L510,33.8 L494.727273,48.7589041 L483.090909,48.7589041 C477.272727,23.1150685 459.575758,11.2429224 430,13.1424658 C394.96,14.0827397 375.8392,27.8224932 372.6376,54.361726 L372.545455,55.169863 L363.818182,55.169863 L363.730382,54.2723496 C363.036013,47.4828217 361.853158,42.7956915 360.181818,40.2109589 C358.482529,37.5830034 355.216835,35.4868176 350.384736,33.9224017 L350,33.8 C344.956128,35.3768603 341.562189,37.5138466 339.818182,40.2109589 Z" id="Path" stroke-width="4" fill="#000000"/>            <path d="M216.909091,48.4383562 C216.909091,85.4794521 234.606061,104 270,104 C305.393939,104 324.545455,87.6164384 327.454545,54.8493151" id="Path" stroke-width="6"/>            <path d="M372.545455,48.4383562 C372.545455,85.4794521 390.242424,104 425.636364,104 C461.030303,104 480.181818,87.6164384 483.090909,54.8493151" id="Path" stroke-width="6" transform="translate(427.818182, 76.219178) scale(-1, 1) translate(-427.818182, -76.219178) "/>            <polygon id="Path" stroke-width="4" fill="#000000" points="199 9 4 41 0 50 199 30"/>        </g>    </g>    </g><g id="notion-avatar-hair">      <g id="Hairstyle/ 51"><path id="Path" fill-rule="evenodd" clip-rule="evenodd" d="M382.001 274C429.761 244.346 494.39 241.407 575.889 265.181L577.14 264.65C597.829 255.949 630.441 246.059 677.001 272C747.001 311 754.98 383.101 781.001 387C799.46 389.766 805.56 435.498 822.001 477C828.104 492.404 867.001 502 867.001 502L822.001 521C822.001 521 831.927 531.092 845.001 539C856.33 545.852 876.001 570 876.001 570C876.001 570 833.793 577.748 828.001 590C824.892 596.577 861.406 604.103 872.001 648C886.001 706 839.99 786.03 868.953 803.495C882.072 811.406 916.953 833.495 916.953 833.495C916.953 833.495 864.775 885.051 840.953 878.495C804.135 868.363 756.953 833.495 756.953 833.495C756.953 833.495 768.409 700.557 764.001 625C760.916 572.103 746.184 514.788 732.001 493C697.561 440.091 627.001 387 540.001 387C473.08 387 468.925 425.463 468.925 425.463C465.119 446.727 465.116 469.946 450.001 502C423.775 557.618 331.05 595.505 331.05 624.505C331.05 653.505 340.05 654.505 340.05 670.505C340.05 686.505 328.02 694.862 331.05 716.505C333.07 730.933 344.021 804.095 360.001 825C332.475 852.867 306.808 870.534 283.001 878C259.195 885.466 228.528 885.466 191.001 878C200.307 869.655 206.974 861.989 211.001 855L211.393 854.308C215.33 847.232 219.867 835.462 225.001 819C218.698 825.705 212.365 830.371 206.001 833C199.637 835.628 190.637 837.295 179.001 838L181.003 835.564C186.363 829.017 190.521 823.735 193.477 819.717L194.434 818.408C199.252 811.846 203.628 806.7 201.001 796C198.297 784.981 163.573 686.372 165.05 653.505C166.035 631.593 176.701 599.259 197.05 556.505C193.586 560.378 189.586 563.378 185.05 565.505C180.513 567.631 173.847 569.631 165.05 571.505L166.29 570.4C177.121 560.712 184.708 552.746 189.05 546.505C193.556 540.027 196.222 533.027 197.05 525.505C190.855 527.314 185.855 527.98 182.05 527.505C178.244 527.029 172.578 525.029 165.05 521.505L166.345 520.889C174.864 516.82 181.099 513.358 185.05 510.505C189.198 507.508 194.532 502.508 201.05 495.505L202.221 492.969C221.276 451.815 236.552 423.661 248.05 408.505C280.199 366.126 314.722 340.408 344.05 318.505C360.26 306.398 368.717 282.248 382.001 274Z" fill="black" stroke="black" stroke-width="12" stroke-linecap="round" stroke-linejoin="round"/></g>    </g><g id="notion-avatar-accessories">      <!--?xml version="1.0" encoding="UTF-8"?-->    <title>Accessories/ 0</title>    <g id="Accessories/-0" stroke="none" stroke-width="1" fill="none" fill-rule="evenodd"/>    </g><g id="notion-avatar-details">      <!--?xml version="1.0" encoding="UTF-8"?-->    <title>Details/ 0</title>    <g id="Details/-0" stroke="none" stroke-width="1" fill="none" fill-rule="evenodd"/>    </g><g id="notion-avatar-beard">      <!--?xml version="1.0" encoding="UTF-8"?-->    <title>Beard/ 0</title>    <g id="Beard/-0" stroke="none" stroke-width="1" fill="none" fill-rule="evenodd"/>    </g>      </g>      </svg>