<svg width="48" height="48" viewBox="0 0 48 48" fill="none" xmlns="http://www.w3.org/2000/svg">
<path fill-rule="evenodd" clip-rule="evenodd" d="M24.75 9V18H29.2235C29.4078 18 29.575 18.075 29.725 18.225C29.875 18.375 29.95 18.55 29.95 18.75C29.95 18.95 29.875 19.125 29.725 19.275C29.575 19.425 29.4078 19.5 29.2235 19.5H24.75V26.15C24.75 26.65 24.975 27 25.425 27.2C25.875 27.4 26.3 27.3167 26.7 26.95C27.9333 25.6167 29.395 24.5667 31.085 23.8C32.775 23.0333 34.5633 22.65 36.45 22.65C36.8943 22.65 37.332 22.6667 37.763 22.7C38.1943 22.7333 38.6056 22.78 38.997 22.84C39.7343 23.0467 40.3275 22.8667 40.7765 22.3C41.2255 21.7333 41.2833 21.15 40.95 20.55L39.2 17.45H34.8C34.4643 17.45 34.1438 17.3583 33.8385 17.175C33.5331 16.9917 33.3203 16.75 33.2 16.45L31.4865 13.2H28.45C28.25 13.2 28.075 13.125 27.925 12.975C27.775 12.825 27.7 12.65 27.7 12.45C27.7 12.25 27.775 12.075 27.925 11.925C28.075 11.775 28.25 11.7 28.45 11.7H31.35C31.687 11.7 31.9898 11.7833 32.2585 11.95C32.5268 12.1167 32.7406 12.35 32.9 12.65L34.6 15.85H38.35L34 8.1C33.838 7.843 33.619 7.62866 33.343 7.457C33.0673 7.28566 32.7696 7.2 32.45 7.2H26.55C26.04 7.2 25.6125 7.3725 25.2675 7.7175C24.9225 8.0625 24.75 8.49 24.75 9ZM15.6 40.8H21.45C21.7586 40.8 22.0275 40.7 22.2565 40.5C22.4855 40.3 22.6166 40.0667 22.65 39.8C22.5166 39.3333 22.4166 38.8612 22.35 38.3835C22.2833 37.9055 22.25 37.411 22.25 36.9C22.25 36.1417 22.3416 35.427 22.525 34.756C22.7083 34.0853 22.95 33.4333 23.25 32.8V27.9H18.25C17.907 27.9 17.5795 27.8083 17.2675 27.625C16.9558 27.4417 16.7333 27.1833 16.6 26.85L15 23.7H10.9C10.7 23.7 10.525 23.625 10.375 23.475C10.225 23.325 10.15 23.15 10.15 22.95C10.15 22.75 10.225 22.575 10.375 22.425C10.525 22.275 10.7 22.2 10.9 22.2H14.9C15.2293 22.2 15.5435 22.2917 15.8425 22.475C16.1418 22.6583 16.3776 22.9 16.55 23.2L18.1 26.4H23.25V19.5H18.7765C18.5921 19.5 18.425 19.425 18.275 19.275C18.125 19.125 18.05 18.95 18.05 18.75C18.05 18.55 18.125 18.375 18.275 18.225C18.425 18.075 18.5921 18 18.7765 18H23.25V9C23.25 8.49 23.0775 8.0625 22.7325 7.7175C22.3875 7.3725 21.96 7.2 21.45 7.2H15.6C15.2613 7.2 14.9456 7.28333 14.653 7.45C14.3606 7.61666 14.143 7.83333 14 8.1L9.69998 15.9H13.45L15.1 12.7C15.2593 12.4 15.4853 12.1583 15.778 11.975C16.0706 11.7917 16.378 11.7 16.7 11.7H19.55C19.75 11.7 19.925 11.775 20.075 11.925C20.225 12.075 20.3 12.25 20.3 12.45C20.3 12.65 20.225 12.825 20.075 12.975C19.925 13.125 19.75 13.2 19.55 13.2H16.5635L14.85 16.4C14.6906 16.7 14.4646 16.9417 14.172 17.125C13.8793 17.3083 13.572 17.4 13.25 17.4H8.84348L5.59998 23.1C5.43331 23.6 5.34998 23.9018 5.34998 24.0055C5.34998 24.1768 5.37498 24.3278 5.42498 24.4585C5.47498 24.5888 5.53331 24.7193 5.59998 24.85L8.76898 30.6H13.25C13.572 30.6 13.8793 30.6833 14.172 30.85C14.4646 31.0167 14.6906 31.25 14.85 31.55L16.5635 34.8H19.55C19.75 34.8 19.925 34.875 20.075 35.025C20.225 35.175 20.3 35.35 20.3 35.55C20.3 35.75 20.225 35.925 20.075 36.075C19.925 36.225 19.75 36.3 19.55 36.3H16.7C16.376 36.3 16.0668 36.2167 15.7725 36.05C15.4778 35.8833 15.2536 35.6333 15.1 35.3L13.4 32.1H9.64998L14 39.9C14.157 40.1713 14.3795 40.3892 14.6675 40.5535C14.9558 40.7178 15.2666 40.8 15.6 40.8ZM29.275 44.06C31.2916 46.0533 33.6855 47.05 36.4565 47.05C39.2278 47.05 41.6195 46.0537 43.6315 44.061C45.6438 42.068 46.65 39.6727 46.65 36.875C46.65 34.0493 45.6416 31.6388 43.625 29.6435C41.6083 27.6478 39.2145 26.65 36.4435 26.65C33.6721 26.65 31.2805 27.65 29.2685 29.65C27.2561 31.65 26.25 34.06 26.25 36.88C26.25 39.673 27.2583 42.0663 29.275 44.06ZM38.1159 30.8832C38.5667 31.3128 38.7921 31.8696 38.7921 32.5536C38.7921 33.0757 38.637 33.6005 38.3267 34.1281C38.0165 34.6558 37.5537 35.1968 36.9384 35.7513C36.4137 36.237 36.0106 36.7362 35.7292 37.2487C35.4478 37.7613 35.3071 38.2663 35.3071 38.7638C35.3071 39.0352 35.4168 39.2726 35.6362 39.4761C35.8556 39.6796 36.1226 39.7814 36.4371 39.7814C36.7083 39.7814 36.9667 39.6759 37.212 39.4648C37.4573 39.2538 37.6305 38.9749 37.7315 38.6281C37.8036 38.273 37.9371 37.9505 38.1319 37.6608C38.3267 37.371 38.655 37.0075 39.1168 36.5704C39.7229 35.9975 40.1883 35.3643 40.513 34.6709C40.8377 33.9774 41 33.2538 41 32.5C41 31.2257 40.5635 30.1571 39.6904 29.2944C38.8174 28.4315 37.717 28 36.3894 28C35.5126 28 34.7018 28.2111 33.9569 28.6332C33.212 29.0553 32.6158 29.6357 32.1685 30.3744C31.9953 30.6759 31.9556 30.9585 32.0494 31.2224C32.1432 31.4862 32.3489 31.701 32.6663 31.8668C32.9261 31.9874 33.2003 32.01 33.4889 31.9347C33.7775 31.8593 34.0156 31.6935 34.2032 31.4372C34.4723 31.0461 34.7928 30.7486 35.1647 30.5446C35.5366 30.3407 35.9448 30.2387 36.3894 30.2387C37.0896 30.2387 37.6651 30.4535 38.1159 30.8832ZM35.1231 45.4439C35.4767 45.8146 35.8981 46 36.3875 46C36.8913 46 37.317 45.8153 37.6646 45.446C38.0122 45.0766 38.186 44.6364 38.186 44.1251C38.186 43.5989 38.0129 43.1541 37.6665 42.791C37.3202 42.4278 36.8951 42.2462 36.3914 42.2462C35.902 42.2462 35.4799 42.4271 35.1251 42.7889C34.7702 43.1508 34.5928 43.5948 34.5928 44.1211C34.5928 44.6323 34.7696 45.0732 35.1231 45.4439Z" fill="white"/>
</svg>
