<svg width="48" height="48" viewBox="0 0 48 48" fill="none" xmlns="http://www.w3.org/2000/svg">
<path fill-rule="evenodd" clip-rule="evenodd" d="M24.7501 9V18H29.2236C29.4079 18 29.5751 18.075 29.7251 18.225C29.8751 18.375 29.9501 18.55 29.9501 18.75C29.9501 18.95 29.8751 19.125 29.7251 19.275C29.5751 19.425 29.4079 19.5 29.2236 19.5H24.7501V26.15C24.7501 26.65 24.9751 27 25.4251 27.2C25.8751 27.4 26.3001 27.3167 26.7001 26.95C27.9334 25.6167 29.3951 24.5667 31.0851 23.8C32.7751 23.0333 34.5634 22.65 36.4501 22.65C36.8944 22.65 37.3321 22.6667 37.7631 22.7C38.1944 22.7333 38.6057 22.78 38.9971 22.84C39.7344 23.0467 40.3276 22.8667 40.7766 22.3C41.2256 21.7333 41.2834 21.15 40.9501 20.55L39.2001 17.45H34.8001C34.4644 17.45 34.1439 17.3583 33.8386 17.175C33.5332 16.9917 33.3204 16.75 33.2001 16.45L31.4866 13.2H28.4501C28.2501 13.2 28.0751 13.125 27.9251 12.975C27.7751 12.825 27.7001 12.65 27.7001 12.45C27.7001 12.25 27.7751 12.075 27.9251 11.925C28.0751 11.775 28.2501 11.7 28.4501 11.7H31.3501C31.6871 11.7 31.9899 11.7833 32.2586 11.95C32.5269 12.1167 32.7407 12.35 32.9001 12.65L34.6001 15.85H38.3501L34.0001 8.1C33.8381 7.843 33.6191 7.62866 33.3431 7.457C33.0674 7.28566 32.7697 7.2 32.4501 7.2H26.5501C26.0401 7.2 25.6126 7.3725 25.2676 7.7175C24.9226 8.0625 24.7501 8.49 24.7501 9ZM15.6001 40.8H21.4501C21.7587 40.8 22.0276 40.7 22.2566 40.5C22.4856 40.3 22.6167 40.0667 22.6501 39.8C22.5167 39.3333 22.4167 38.8612 22.3501 38.3835C22.2834 37.9055 22.2501 37.411 22.2501 36.9C22.2501 36.1417 22.3417 35.427 22.5251 34.756C22.7084 34.0853 22.9501 33.4333 23.2501 32.8V27.9H18.2501C17.9071 27.9 17.5796 27.8083 17.2676 27.625C16.9559 27.4417 16.7334 27.1833 16.6001 26.85L15.0001 23.7H10.9001C10.7001 23.7 10.5251 23.625 10.3751 23.475C10.2251 23.325 10.1501 23.15 10.1501 22.95C10.1501 22.75 10.2251 22.575 10.3751 22.425C10.5251 22.275 10.7001 22.2 10.9001 22.2H14.9001C15.2294 22.2 15.5436 22.2917 15.8426 22.475C16.1419 22.6583 16.3777 22.9 16.5501 23.2L18.1001 26.4H23.2501V19.5H18.7766C18.5922 19.5 18.4251 19.425 18.2751 19.275C18.1251 19.125 18.0501 18.95 18.0501 18.75C18.0501 18.55 18.1251 18.375 18.2751 18.225C18.4251 18.075 18.5922 18 18.7766 18H23.2501V9C23.2501 8.49 23.0776 8.0625 22.7326 7.7175C22.3876 7.3725 21.9601 7.2 21.4501 7.2H15.6001C15.2614 7.2 14.9457 7.28333 14.6531 7.45C14.3607 7.61666 14.1431 7.83333 14.0001 8.1L9.7001 15.9H13.4501L15.1001 12.7C15.2594 12.4 15.4854 12.1583 15.7781 11.975C16.0707 11.7917 16.3781 11.7 16.7001 11.7H19.5501C19.7501 11.7 19.9251 11.775 20.0751 11.925C20.2251 12.075 20.3001 12.25 20.3001 12.45C20.3001 12.65 20.2251 12.825 20.0751 12.975C19.9251 13.125 19.7501 13.2 19.5501 13.2H16.5636L14.8501 16.4C14.6907 16.7 14.4647 16.9417 14.1721 17.125C13.8794 17.3083 13.5721 17.4 13.2501 17.4H8.8436L5.6001 23.1C5.43343 23.6 5.3501 23.9018 5.3501 24.0055C5.3501 24.1768 5.3751 24.3278 5.4251 24.4585C5.4751 24.5888 5.53343 24.7193 5.6001 24.85L8.7691 30.6H13.2501C13.5721 30.6 13.8794 30.6833 14.1721 30.85C14.4647 31.0167 14.6907 31.25 14.8501 31.55L16.5636 34.8H19.5501C19.7501 34.8 19.9251 34.875 20.0751 35.025C20.2251 35.175 20.3001 35.35 20.3001 35.55C20.3001 35.75 20.2251 35.925 20.0751 36.075C19.9251 36.225 19.7501 36.3 19.5501 36.3H16.7001C16.3761 36.3 16.0669 36.2167 15.7726 36.05C15.4779 35.8833 15.2537 35.6333 15.1001 35.3L13.4001 32.1H9.6501L14.0001 39.9C14.1571 40.1713 14.3796 40.3892 14.6676 40.5535C14.9559 40.7178 15.2667 40.8 15.6001 40.8ZM29.2751 44.06C31.2917 46.0533 33.6856 47.05 36.4566 47.05C39.2279 47.05 41.6196 46.0537 43.6316 44.061C45.6439 42.068 46.6501 39.6727 46.6501 36.875C46.6501 34.0493 45.6417 31.6388 43.6251 29.6435C41.6084 27.6478 39.2146 26.65 36.4436 26.65C33.6722 26.65 31.2806 27.65 29.2686 29.65C27.2562 31.65 26.2501 34.06 26.2501 36.88C26.2501 39.673 27.2584 42.0663 29.2751 44.06ZM38.116 30.8832C38.5668 31.3128 38.7922 31.8696 38.7922 32.5536C38.7922 33.0757 38.6371 33.6005 38.3268 34.1281C38.0166 34.6558 37.5538 35.1968 36.9385 35.7513C36.4138 36.237 36.0107 36.7362 35.7293 37.2487C35.4479 37.7613 35.3072 38.2663 35.3072 38.7638C35.3072 39.0352 35.4169 39.2726 35.6363 39.4761C35.8557 39.6796 36.1227 39.7814 36.4372 39.7814C36.7084 39.7814 36.9668 39.6759 37.2121 39.4648C37.4574 39.2538 37.6306 38.9749 37.7316 38.6281C37.8037 38.273 37.9372 37.9505 38.132 37.6608C38.3268 37.371 38.6551 37.0075 39.1169 36.5704C39.723 35.9975 40.1884 35.3643 40.5131 34.6709C40.8378 33.9774 41.0001 33.2538 41.0001 32.5C41.0001 31.2257 40.5636 30.1571 39.6905 29.2944C38.8175 28.4315 37.7171 28 36.3895 28C35.5127 28 34.7019 28.2111 33.957 28.6332C33.2121 29.0553 32.6159 29.6357 32.1686 30.3744C31.9954 30.6759 31.9557 30.9585 32.0495 31.2224C32.1433 31.4862 32.349 31.701 32.6664 31.8668C32.9262 31.9874 33.2004 32.01 33.489 31.9347C33.7776 31.8593 34.0157 31.6935 34.2033 31.4372C34.4724 31.0461 34.7929 30.7486 35.1648 30.5446C35.5367 30.3407 35.9449 30.2387 36.3895 30.2387C37.0897 30.2387 37.6652 30.4535 38.116 30.8832ZM35.1232 45.4439C35.4768 45.8146 35.8982 46 36.3876 46C36.8914 46 37.3171 45.8153 37.6647 45.446C38.0123 45.0766 38.1861 44.6364 38.1861 44.1251C38.1861 43.5989 38.013 43.1541 37.6666 42.791C37.3203 42.4278 36.8952 42.2462 36.3915 42.2462C35.9021 42.2462 35.48 42.4271 35.1252 42.7889C34.7703 43.1508 34.5929 43.5948 34.5929 44.1211C34.5929 44.6323 34.7697 45.0732 35.1232 45.4439Z" fill="#059B9A"/>
</svg>
