<svg width="48" height="48" viewBox="0 0 48 48" fill="none" xmlns="http://www.w3.org/2000/svg">
<path d="M18.672 32.25C14.8284 32.25 11.597 30.9383 8.97805 28.315C6.35938 25.6913 5.05005 22.4997 5.05005 18.74C5.05005 14.98 6.36172 11.7917 8.98505 9.175C11.6087 6.55833 14.8004 5.25 18.56 5.25C22.32 5.25 25.5084 6.56067 28.125 9.182C30.7417 11.8037 32.05 14.9955 32.05 18.7575C32.05 20.2858 31.8334 21.675 31.4 22.925C30.9667 24.175 30.3334 25.3667 29.5 26.5L41.35 38.25C41.7834 38.702 42 39.2563 42 39.913C42 40.5697 41.7834 41.1237 41.35 41.575C40.8724 42.025 40.3184 42.25 39.688 42.25C39.0574 42.25 38.5114 42.0167 38.05 41.55L26.3235 29.8C25.3079 30.564 24.159 31.1633 22.877 31.598C21.595 32.0327 20.1934 32.25 18.672 32.25ZM18.572 27.7C21.105 27.7 23.2262 26.841 24.9355 25.123C26.6452 23.405 27.5 21.2875 27.5 18.7705C27.5 16.2538 26.6442 14.1295 24.9325 12.3975C23.2212 10.6658 21.1025 9.8 18.5765 9.8C16.0229 9.8 13.8884 10.6658 12.173 12.3975C10.4577 14.1295 9.60005 16.2538 9.60005 18.7705C9.60005 21.2875 10.4552 23.405 12.1655 25.123C13.8759 26.841 16.0114 27.7 18.572 27.7Z" fill="#059B9A"/>
</svg>
